<svg id="Capa_1" enable-background="new 0 0 511.186 511.186" height="512" viewBox="0 0 511.186 511.186" width="512" xmlns="http://www.w3.org/2000/svg"><g><g><path d="m7.5 396.27c-1.919 0-3.839-.732-5.303-2.197-2.929-2.929-2.929-7.678 0-10.606l47.235-47.235-.218-16.284c-.069-5.173.227-10.489.88-15.799.506-4.111 4.242-7.034 8.36-6.528 4.111.506 7.034 4.249 6.528 8.36-.571 4.638-.83 9.27-.769 13.766l.224 16.783c.05 3.705-1.425 7.333-4.046 9.955l-47.588 47.588c-1.464 1.465-3.383 2.197-5.303 2.197z"/></g><g><path d="m503.686 388c-1.919 0-3.839-.732-5.304-2.197l-69.109-69.109c-1.322-1.323-2.103-3.092-2.188-4.96l-.898-19.616c-.596-12.985-4.349-25.796-10.853-37.048l-14.124-24.438c-1.764-3.049-2.848-6.373-3.224-9.877l-4.224-39.354c-.442-4.119 2.538-7.815 6.656-8.257 4.137-.446 7.815 2.539 8.258 6.657l4.224 39.354c.151 1.409.587 2.745 1.296 3.971l14.124 24.439c7.701 13.323 12.146 28.492 12.851 43.868l.766 16.712 67.054 67.054c2.929 2.929 2.929 7.678 0 10.606-1.466 1.463-3.386 2.195-5.305 2.195z"/></g><path d="m405.264 148.001-2.565-23.915c-1.815-16.918-15.427-30.38-32.363-32.009l-2.837-.273c-16.452-1.583-31.729 8.424-37.268 23.504-6.588.679-12.993 3.533-18.031 8.571l-1.265 1.265-69.637-69.636c-11.599-11.599-30.472-11.599-42.069 0-3.793 3.793-6.338 8.367-7.65 13.207l-2.015-2.015c-11.599-11.599-30.471-11.599-42.069 0-3.793 3.793-6.338 8.367-7.65 13.207l-4.046-4.046c-11.599-11.599-30.472-11.599-42.069 0-11.599 11.599-11.599 30.471 0 42.07l2.673 2.673c-4.84 1.312-9.414 3.856-13.207 7.65-11.598 11.599-11.598 30.471 0 42.07l5.788 5.787-12.924 66.639-7.387 11.125c-3.599 5.419-6.788 11.253-9.481 17.338-1.676 3.788.036 8.217 3.824 9.893.987.437 2.017.644 3.031.644 2.878 0 5.623-1.666 6.863-4.467 2.35-5.312 5.129-10.395 8.259-15.109l8.216-12.374c.547-.825.926-1.75 1.115-2.721l13.854-71.442c1.706-8.796 9.983-14.647 18.844-13.321 7.57 1.133 13.381 7.244 14.132 14.862l5.246 53.259-15.786 15.786c-2.929 2.929-2.929 7.678 0 10.606 1.464 1.464 3.384 2.197 5.303 2.197s3.839-.732 5.303-2.197l131.49-131.491c5.799-5.796 15.231-5.797 21.026 0 2.809 2.808 4.355 6.542 4.355 10.513 0 3.317-1.092 6.46-3.085 9.044l-91.017 91.018c-2.929 2.929-2.929 7.678 0 10.606.017.017.035.03.052.047.016.017.03.035.047.052 2.929 2.929 7.678 2.929 10.606 0l111.934-112.132c5.799-5.796 15.231-5.796 21.026 0 5.798 5.797 5.798 15.229 0 21.026l-112.129 111.933c-2.929 2.929-2.929 7.678 0 10.606 2.929 2.929 7.678 2.929 10.606 0l83.342-83.144c5.826-4.478 14.228-4.065 19.56 1.268 5.797 5.797 5.797 15.229 0 21.026l-81.976 81.777c-2.929 2.929-2.929 7.678 0 10.606.017.017.035.03.052.047.016.017.03.035.047.052 1.465 1.465 3.384 2.197 5.304 2.197 1.919 0 3.839-.732 5.304-2.197l61.766-61.765c2.584-1.991 5.726-3.083 9.043-3.083 3.972 0 7.705 1.546 10.513 4.354 5.797 5.797 5.797 15.229 0 21.026l-27.636 27.636c-2.929 2.929-2.929 7.678 0 10.606 2.93 2.929 7.678 2.929 10.607 0l27.636-27.636c11.645-11.646 11.645-30.593 0-42.239-3.787-3.786-8.346-6.332-13.174-7.654l3.122-3.122c11.644-11.646 11.644-30.594-.001-42.239-3.785-3.785-8.344-6.332-13.171-7.656l11.795-11.795c5.641-5.641 8.748-13.142 8.748-21.12s-3.107-15.479-8.749-21.12c-2.642-2.642-5.662-4.678-8.885-6.122 3.913-7.262 11.915-11.852 20.509-11.022l2.837.273c9.884.951 17.826 8.807 18.886 18.679l2.565 23.915c.412 3.847 3.665 6.701 7.448 6.701.267 0 .537-.014.809-.043 4.118-.441 7.099-4.138 6.656-8.256zm-310.516 12.661-.946-.946c-5.75-5.75-5.75-15.106 0-20.857 5.749-5.748 15.103-5.75 20.855-.002l8.363 8.363c-11.399-.842-22.03 4.489-28.272 13.442zm9.588-53.339c-2.786-2.786-4.319-6.489-4.319-10.428s1.534-7.643 4.319-10.429c5.75-5.75 15.106-5.751 20.856 0l80.676 80.676-20.857 20.857zm48.004 69.218 22.065 22.065-18.108 18.108zm64.135-20.005-58.374-58.374c-5.75-5.75-5.75-15.106 0-20.857 5.75-5.75 15.106-5.75 20.856 0l58.374 58.374zm41.806-41.807-10.343 10.343-38.103-38.102c-5.75-5.75-5.75-15.106 0-20.857 5.75-5.75 15.106-5.75 20.856 0l40.918 40.918c-4.885 1.312-9.501 3.873-13.328 7.698z"/><path d="m417.675 493.837-71.168-71.168c-3.744-3.744-9.103-5.49-14.336-4.677-17.393 2.713-35.212-3.102-47.661-15.551l-20.13-20.13 51.252-51.252c2.929-2.929 2.929-7.678 0-10.606s-7.677-2.93-10.607 0l-96.957 96.957c-10.537 10.537-24.483 17.353-39.274 19.193l-.226.028c-6.089.757-11.833 3.564-16.17 7.903l-52.438 52.438c-2.929 2.929-2.929 7.678 0 10.606 1.464 1.464 3.384 2.197 5.303 2.197s3.839-.732 5.303-2.197l52.438-52.438c1.989-1.989 4.623-3.276 7.419-3.625l.226-.028c18.084-2.25 35.139-10.585 48.025-23.471l35.099-35.098 20.129 20.13c15.824 15.823 38.472 23.213 60.579 19.766.519-.08 1.049.093 1.418.462l71.168 71.168c1.465 1.465 3.384 2.197 5.304 2.197 1.919 0 3.839-.732 5.304-2.197 2.929-2.929 2.929-7.678 0-10.607z"/><g><path d="m317.534 56.25c-4.519 0-8.681-2.279-11.134-6.197l-14.469-23.098c-3.188-5.089-2.524-11.711 1.612-16.105 10.705-11.37 25.515-10.421 36.051-7.624 3.507.931 6.515 3.286 8.251 6.461 1.726 3.154 2.085 6.926.987 10.348l-8.678 27.045c-1.588 4.946-5.775 8.419-10.93 9.064-.566.072-1.132.106-1.69.106zm-12.137-36.054 11.658 18.612 6.906-21.521c-11.183-2.515-16.298.813-18.564 2.909z"/></g><g><path d="m361.862 63.63c-3.745 0-7.227-1.793-9.408-4.877-2.303-3.256-2.766-7.399-1.238-11.083l10.713-25.851c1.269-3.06 3.794-5.429 6.928-6.502 3.137-1.073 6.584-.749 9.462.892 12.282 7 20.426 17.527 24.205 31.287.924 3.366.279 6.923-1.768 9.761-2.059 2.853-5.252 4.596-8.763 4.783l-29.502 1.575c-.21.009-.42.015-.629.015zm12.354-32.282-7.043 16.994 19.511-1.042c-2.583-6.619-6.698-11.885-12.468-15.952z"/></g></g></svg>