<svg id="Capa_1" enable-background="new 0 0 511.041 511.041" height="512" viewBox="0 0 511.041 511.041" width="512" xmlns="http://www.w3.org/2000/svg"><g><path d="m485.373 211.349h-334.513v-13.251l308.33-126.933c4.092-1.685 7.283-4.861 8.985-8.945s1.712-8.587.027-12.678l-16.169-39.274c-1.685-4.091-4.861-7.282-8.945-8.984s-8.587-1.711-12.679-.027l-323.531 133.241c-3.303-2.716-7.509-4.246-11.807-4.246h-22.473c-4.143 0-7.5 3.358-7.5 7.5s3.357 7.5 7.5 7.5h22.473c.946 0 1.869.386 2.533 1.06l37.231 37.764c.661.669 1.024 1.556 1.024 2.497v88.982c0 1.961-1.596 3.557-3.558 3.557h-104.643c-1.961 0-3.557-1.596-3.557-3.557v-126.746c0-1.961 1.596-3.557 3.557-3.557h12.977c4.143 0 7.5-3.358 7.5-7.5s-3.357-7.5-7.5-7.5h-12.977c-10.232 0-18.557 8.325-18.557 18.557v126.745c0 7.562 4.553 14.072 11.057 16.96v184.714c0 18.645 15.169 33.813 33.813 33.813h400.45c18.645 0 33.813-15.168 33.813-33.813v-33.25c0-4.142-3.357-7.5-7.5-7.5s-7.5 3.358-7.5 7.5v33.25c0 10.374-8.439 18.813-18.813 18.813h-400.449c-10.374 0-18.813-8.439-18.813-18.813v-183.117h97.144c5.935 0 11.215-2.812 14.615-7.161h326.318v125.065c0 4.142 3.357 7.5 7.5 7.5s7.5-3.358 7.5-7.5v-125.33c7.772-1.362 13.704-8.144 13.704-16.3v-42.472c-.001-9.134-7.433-16.564-16.567-16.564zm0 60.601h-18.866l20.431-33.941v32.376c.001.863-.701 1.565-1.565 1.565zm-63.949 0 27.45-45.601h27.575l-27.45 45.601zm-74.719 0 27.45-45.601h57.21l-27.45 45.601zm-119.804 0 27.45-45.601h57.21l-27.45 45.601zm-45.084 0 27.449-45.601h27.577l-27.45 45.601zm147.253-45.601h27.577l-27.45 45.601h-27.577zm-148.115-106.136 42.708 31.692-25.5 10.498-42.704-31.69zm69.083-28.451 42.717 31.699-52.902 21.779-42.71-31.694zm41.685-17.167 42.722 31.703-25.499 10.497-42.719-31.701zm69.083-28.451 42.732 31.71-52.903 21.779-42.724-31.705zm41.684-17.167 42.737 31.714-25.499 10.497-42.734-31.712zm33.631-13.85c.497-.205.924-.111 1.197.002.272.114.641.354.845.849l12.324 29.938-31.81-23.605zm-317.765 130.867 20.915-8.614 42.701 31.688-31.673 13.039c-.79-3.205-2.408-6.157-4.782-8.564zm32.504 80.355h40.898l-27.449 45.601h-13.449z"/><path d="m79.981 256.649c22.873 0 41.481-18.608 41.481-41.481s-18.608-41.481-41.481-41.481-41.481 18.608-41.481 41.481c-.001 22.873 18.608 41.481 41.481 41.481zm0-67.962c14.602 0 26.481 11.879 26.481 26.481s-11.88 26.481-26.481 26.481-26.481-11.879-26.481-26.481c-.001-14.602 11.879-26.481 26.481-26.481z"/><path d="m79.981 223.668c4.143 0 7.5-3.358 7.5-7.5v-2.987c0-4.142-3.357-7.5-7.5-7.5s-7.5 3.358-7.5 7.5v2.987c0 4.142 3.357 7.5 7.5 7.5z"/><path d="m434.476 329.429c0-8.33-6.776-15.107-15.106-15.107h-338.516c-8.33 0-15.106 6.777-15.106 15.107v22.349c0 8.33 6.776 15.107 15.106 15.107h23.934c4.143 0 7.5-3.358 7.5-7.5s-3.357-7.5-7.5-7.5h-23.934c-.059 0-.106-.048-.106-.107v-22.349c0-.059.048-.107.106-.107h338.516c.059 0 .106.048.106.107v22.349c0 .059-.048.107-.106.107h-282.62c-4.143 0-7.5 3.358-7.5 7.5s3.357 7.5 7.5 7.5h282.62c8.33 0 15.106-6.777 15.106-15.107z"/><path d="m341.748 470.004c4.143 0 7.5-3.358 7.5-7.5v-46.095h77.728c4.143 0 7.5-3.358 7.5-7.5s-3.357-7.5-7.5-7.5h-353.729c-4.143 0-7.5 3.358-7.5 7.5s3.357 7.5 7.5 7.5h77.728v46.095c0 4.142 3.357 7.5 7.5 7.5s7.5-3.358 7.5-7.5v-46.095h168.273v46.095c0 4.143 3.358 7.5 7.5 7.5z"/></g></svg>