<svg id="Capa_1" enable-background="new 0 0 503.101 503.101" height="42" viewBox="0 0 503.101 503.101" width="42" xmlns="http://www.w3.org/2000/svg"><g><path d="m495.672 232.136-35.848-30.515c-3.153-2.685-7.887-2.304-10.572.85s-2.305 7.887.85 10.572l30.598 26.047h-119.199l47.402-61.117 16.757 14.265c3.154 2.686 7.889 2.305 10.572-.849 2.685-3.154 2.305-7.888-.85-10.573l-22.734-19.354c-3.627-3.086-8.246-4.787-13.008-4.787h-5.876c.455-1.684.719-3.445.719-5.271v-13.809c0-7.449-4.051-13.955-10.053-17.479l33.742-77.766c1.697-3.913 1.313-8.377-1.026-11.943-2.34-3.565-6.283-5.694-10.548-5.694h-22.022c-2.148 0-4.274.553-6.15 1.601l-21.744 12.141c-3.616 2.019-4.911 6.588-2.893 10.205 2.021 3.617 6.59 4.912 10.205 2.892l21.202-11.838h17.77l-33.674 77.61h-235.484l-33.674-77.61h17.77l69.436 38.768c3.476 1.946 7.923 1.198 10.577-1.787l53.634-60.447 53.64 60.453c2.648 2.978 7.094 3.728 10.563 1.785l19.996-11.165c3.616-2.019 4.911-6.588 2.893-10.205-2.02-3.617-6.588-4.911-10.205-2.892l-15.472 8.638-52.038-58.646c-2.377-2.679-5.795-4.216-9.377-4.216s-7 1.537-9.379 4.217l-52.036 58.646-65.461-36.549c-1.876-1.047-4.002-1.6-6.15-1.6h-22.023c-4.265 0-8.208 2.129-10.548 5.694-2.34 3.566-2.724 8.031-1.025 11.944l33.741 77.765c-6.002 3.523-10.053 10.029-10.053 17.479v13.809c0 1.826.265 3.587.719 5.271h-5.876c-4.762 0-9.381 1.7-13.008 4.787l-83.023 70.672c-4.226 3.597-6.792 8.839-7.041 14.382-.249 5.543 1.837 10.993 5.722 14.953l231.114 235.616c3.805 3.878 8.893 6.015 14.326 6.015s10.521-2.136 14.327-6.015l231.113-235.615c3.886-3.96 5.972-9.411 5.723-14.954s-2.816-10.785-7.041-14.381zm-214.892-60.461 50.435 67.414h-159.329l50.435-67.414zm18.734 0h95.29l-48.504 62.538zm-142.712 62.538-48.504-62.537h95.29zm-15.202 4.876h-119.199l71.797-61.117zm10.15 15 17.58 45.884c1.145 2.985 3.988 4.819 7.006 4.818.892 0 1.799-.16 2.682-.499 3.868-1.482 5.802-5.819 4.32-9.687l-15.525-40.517h167.474l-83.737 218.548-56.75-148.116c-1.482-3.868-5.815-5.804-9.688-4.32-3.868 1.482-5.802 5.819-4.32 9.687l55.483 144.812-216.393-220.61zm199.601 0h131.868l-216.394 220.61zm-227.734-102.685v-13.809c0-2.907 2.364-5.271 5.271-5.271h245.326c2.906 0 5.271 2.365 5.271 5.271v13.809c0 2.906-2.364 5.271-5.271 5.271h-245.327c-2.906 0-5.27-2.364-5.27-5.271z"/><path d="m246.573 58.881c-11.285 0-20.466 9.181-20.466 20.466v2.973c0 11.285 9.181 20.466 20.466 20.466h9.955c11.285 0 20.466-9.181 20.466-20.466v-2.973c0-11.285-9.181-20.466-20.466-20.466zm15.421 20.466v2.973c0 3.014-2.452 5.466-5.466 5.466h-9.955c-3.014 0-5.466-2.452-5.466-5.466v-2.973c0-3.014 2.452-5.466 5.466-5.466h9.955c3.014 0 5.466 2.452 5.466 5.466z"/><path d="m305.922 90.644h-3.734c-4.143 0-7.5 3.358-7.5 7.5s3.357 7.5 7.5 7.5h3.734c4.143 0 7.5-3.358 7.5-7.5s-3.358-7.5-7.5-7.5z"/><path d="m348.397 105.644h3.734c4.143 0 7.5-3.358 7.5-7.5s-3.357-7.5-7.5-7.5h-3.734c-4.143 0-7.5 3.358-7.5 7.5s3.358 7.5 7.5 7.5z"/><path d="m197.179 90.644c-4.143 0-7.5 3.358-7.5 7.5s3.357 7.5 7.5 7.5h3.734c4.143 0 7.5-3.358 7.5-7.5s-3.357-7.5-7.5-7.5z"/><path d="m150.969 90.644c-4.143 0-7.5 3.358-7.5 7.5s3.357 7.5 7.5 7.5h3.734c4.143 0 7.5-3.358 7.5-7.5s-3.357-7.5-7.5-7.5z"/></g></svg>