<?xml version="1.0" encoding="utf-8"?>
<!-- Generator: Adobe Illustrator 25.0.0, SVG Export Plug-In . SVG Version: 6.00 Build 0)  -->
<svg version="1.1" id="Слой_1" xmlns="http://www.w3.org/2000/svg" xmlns:xlink="http://www.w3.org/1999/xlink" x="0px" y="0px"
	 viewBox="0 0 95.95 48" style="enable-background:new 0 0 95.95 48;" xml:space="preserve">
<style type="text/css">
	.st0{fill:#E63422;}
	.st1{fill:none;stroke:#000000;stroke-miterlimit:10;}
</style>
<polygon class="st0" points="0,11.87 6,39.42 43.07,28.01 41.41,0 "/>
<polygon class="st0" points="56.7,19.6 58.58,47.83 91.89,38.78 95.95,9.86 "/>
<polygon points="58.58,47.83 43.07,28.01 41.41,0 56.7,19.6 "/>
<g>
	<polygon points="74.7,22.25 72.43,31.22 69.24,23.69 65.14,24.77 71.08,37.81 74.27,36.97 74.26,36.96 77.88,22.49 77.43,21.53 	
		"/>
	<polygon points="82.95,20.08 80.83,29.31 77.88,22.49 76.4,28.39 79.61,35.56 82.83,34.71 82.95,34.14 86.86,19.05 	"/>
</g>
<path d="M32.59,26.5L22.21,11.88l-3.51,0.94l-5.08,18.72l4.69-1.24l1.25-5.25l-0.35,1.49l6.72-1.7l1.9,2.95L32.59,26.5z
	 M20.16,22.52l1.16-4.86l2.48,3.86L20.16,22.52z"/>
<path class="st1" d="M13.62,31.53"/>
</svg>
