<svg id="Capa_1" enable-background="new 0 0 511.903 511.903" height="512" viewBox="0 0 511.903 511.903" width="512" xmlns="http://www.w3.org/2000/svg"><g><path d="m317.015 160.647h-21.49c7.109-7.942 11.451-18.409 11.451-29.882v-85.882c0-24.748-20.135-44.883-44.883-44.883h-37.832c-4.142 0-7.5 3.357-7.5 7.5s3.358 7.5 7.5 7.5h37.832c16.478 0 29.883 13.405 29.883 29.883v8.868h-67.715c-4.142 0-7.5 3.357-7.5 7.5s3.358 7.5 7.5 7.5h67.715v58.148h-75.843c-4.142 0-7.5 3.357-7.5 7.5s3.358 7.5 7.5 7.5h73.683c-4.425 10.977-15.18 18.748-27.723 18.748h-76.665c-16.477 0-29.882-13.405-29.882-29.882v-26.152h60.586c4.142 0 7.5-3.357 7.5-7.5s-3.358-7.5-7.5-7.5h-60.586v-37.231h18.136c4.142 0 7.5-3.357 7.5-7.5s-3.358-7.5-7.5-7.5h-17.182c3.338-12.859 15.041-22.382 28.929-22.382h6.87c4.142 0 7.5-3.357 7.5-7.5s-3.358-7.5-7.5-7.5h-6.87c-24.748 0-44.882 20.135-44.882 44.883v85.883c0 11.471 4.335 21.941 11.442 29.882h-21.482c-15.453 0-28.024 12.571-28.024 28.024v42.055c0 4.143 3.358 7.5 7.5 7.5s7.5-3.357 7.5-7.5v-42.055c0-7.182 5.843-13.024 13.024-13.024h186.508c7.183 0 13.025 5.843 13.025 13.024v84.11c0 7.182-5.843 13.024-13.025 13.024h-186.508c-7.182 0-13.024-5.843-13.024-13.024v-10.093c0-4.143-3.358-7.5-7.5-7.5s-7.5 3.357-7.5 7.5v10.093c0 15.453 12.572 28.024 28.024 28.024h38.537l12.98 193.505c.663 9.864 8.926 17.592 18.813 17.592h45.848c9.887 0 18.15-7.728 18.813-17.593l2.568-38.299c.277-4.133-2.849-7.708-6.981-7.985-4.13-.276-7.708 2.848-7.985 6.981l-2.568 38.298c-.135 2.018-1.825 3.598-3.847 3.598h-45.848c-2.021 0-3.711-1.58-3.847-3.597l-12.912-192.5h17.404v44.104c0 8.261 6.721 14.981 14.982 14.981h14.595c8.261 0 14.981-6.721 14.981-14.981v-44.104h17.404l-8.204 122.308c-.277 4.133 2.849 7.708 6.981 7.985.171.012.341.017.51.017 3.913 0 7.21-3.036 7.476-6.998l8.272-123.312h38.537c15.453 0 28.025-12.571 28.025-28.024v-84.11c0-15.453-12.573-28.025-28.026-28.025zm-85.956 184.245-14.577.019v-44.104h14.562z"/><path d="m266.831 220.705c-1.154-3.552-4.167-6.092-7.864-6.63l-18.29-2.657-8.18-16.574c-1.653-3.35-5-5.43-8.735-5.43s-7.082 2.08-8.735 5.43l-8.18 16.574-18.292 2.657c-3.696.538-6.708 3.078-7.862 6.63s-.209 7.378 2.465 9.985l13.235 12.901-2.925 17.054c-.683 3.979 1.109 7.898 4.565 9.985 3.455 2.087 7.758 1.85 10.963-.608l14.766-11.322 14.767 11.324c1.751 1.342 3.83 2.021 5.92 2.021 1.734 0 3.477-.469 5.044-1.415 3.455-2.088 5.246-6.007 4.563-9.984l-2.925-17.055 13.236-12.901c2.674-2.607 3.618-6.433 2.464-9.985zm-28.149 14.074c-2.298 2.238-3.346 5.463-2.803 8.623l1.123 6.55-7.316-5.61c-1.744-1.336-3.833-2.004-5.924-2.004-2.09 0-4.182.668-5.929 2.006l-7.313 5.607 1.123-6.547c.543-3.162-.504-6.387-2.801-8.623l-7.585-7.394 10.485-1.523c3.172-.463 5.913-2.455 7.331-5.329l4.688-9.498 4.686 9.493c1.417 2.877 4.158 4.871 7.337 5.334l10.481 1.523z"/><path d="m348.009 102.983c-4.074-.802-8.006 1.856-8.8 5.921l-4.489 22.958c-.795 4.065 1.855 8.005 5.921 8.8.486.096.971.141 1.447.141 3.515 0 6.653-2.482 7.353-6.062l4.489-22.958c.795-4.065-1.855-8.005-5.921-8.8z"/><path d="m388.911 145.064c3.366-2.413 4.139-7.099 1.725-10.465-2.415-3.368-7.101-4.139-10.465-1.725l-16.626 11.922c-3.366 2.413-4.139 7.099-1.725 10.465 1.465 2.043 3.766 3.131 6.101 3.131 1.514 0 3.041-.457 4.364-1.406z"/><path d="m409.267 174.254c-.829-4.059-4.792-6.676-8.85-5.846l-23.095 4.72c-4.058.829-6.676 4.791-5.846 8.85.726 3.552 3.851 6 7.34 6 .498 0 1.003-.051 1.51-.154l23.095-4.72c4.058-.83 6.676-4.791 5.846-8.85z"/></g></svg>