<svg id="Capa_1" enable-background="new 0 0 511.278 511.278" height="512" viewBox="0 0 511.278 511.278" width="512" xmlns="http://www.w3.org/2000/svg"><g><path d="m273.985 431.214 44.618-86.73c4.909-9.202 2.677-20.723-5.324-27.423-8.558-7.168-21.172-6.834-29.339.776l-19.907 18.549v-111.606c0-14.33-11.659-25.989-25.989-25.989s-25.989 11.659-25.989 25.989v40.802c-3.34-1.565-7.063-2.445-10.989-2.445-7.228 0-13.773 2.968-18.489 7.747-4.715-4.779-11.261-7.747-18.489-7.747s-13.774 2.968-18.489 7.747c-4.715-4.779-11.261-7.747-18.489-7.747-14.33 0-25.989 11.659-25.989 25.989v93.188c0 4.142 3.358 7.5 7.5 7.5s7.5-3.358 7.5-7.5v-93.188c0-6.059 4.93-10.989 10.989-10.989 6.057 0 10.985 4.926 10.989 10.982v.006 34.08c0 4.142 3.358 7.5 7.5 7.5s7.5-3.358 7.5-7.5v-34.08c0-.002 0-.004 0-.006.004-6.056 4.932-10.982 10.989-10.982 6.059 0 10.989 4.93 10.989 10.989v34.08c0 4.142 3.358 7.5 7.5 7.5s7.5-3.358 7.5-7.5v-34.08c0-6.059 4.93-10.989 10.989-10.989s10.989 4.93 10.989 10.989v34.11c0 4.142 3.358 7.5 7.5 7.5s7.5-3.358 7.5-7.5v-98.456c0-6.059 4.93-10.989 10.989-10.989s10.989 4.93 10.989 10.989v128.847c0 2.985 1.771 5.687 4.508 6.877s5.92.645 8.104-1.391l32.52-30.302c2.64-2.46 6.716-2.567 9.482-.251 2.592 2.171 3.311 5.907 1.709 8.885-.022.041-.043.082-.065.123l-44.646 86.784c-.902 1.754-2.093 3.326-3.539 4.67l-37.658 35.031c-1.525 1.418-2.392 3.408-2.392 5.491v34.233c0 4.142 3.358 7.5 7.5 7.5s7.5-3.358 7.5-7.5v-30.966l35.266-32.806c2.722-2.53 4.963-5.488 6.663-8.791z"/><path d="m118.027 444.712c-1.246-2.142-1.905-4.583-1.905-7.061v-23.375c0-4.142-3.358-7.5-7.5-7.5s-7.5 3.358-7.5 7.5v23.375c0 5.125 1.362 10.175 3.94 14.605l7.883 13.548v37.224c0 4.142 3.358 7.5 7.5 7.5s7.5-3.358 7.5-7.5v-39.248c0-1.325-.351-2.626-1.018-3.772z"/><path d="m359.606 0h-192.816c-27.873 0-50.549 22.677-50.549 50.55v190.217c0 4.142 3.358 7.5 7.5 7.5s7.5-3.358 7.5-7.5v-190.217c0-19.602 15.947-35.55 35.549-35.55h192.816c19.602 0 35.55 15.948 35.55 35.55v43.918c0 4.142 3.358 7.5 7.5 7.5s7.5-3.358 7.5-7.5v-43.918c0-27.873-22.677-50.55-50.55-50.55z"/><path d="m402.656 118.93c-4.142 0-7.5 3.358-7.5 7.5v317.336c0 19.602-15.948 35.549-35.55 35.549h-105.049c-4.142 0-7.5 3.358-7.5 7.5s3.358 7.5 7.5 7.5h105.049c27.873 0 50.55-22.676 50.55-50.549v-317.336c0-4.142-3.358-7.5-7.5-7.5z"/><path d="m222.428 53.234-11.385-14.95c-3.95-5.187-10.201-8.284-16.72-8.284h-27.533c-11.331 0-20.549 9.218-20.549 20.549v191.216c0 4.142 3.358 7.5 7.5 7.5s7.5-3.358 7.5-7.5v-191.215c0-3.06 2.489-5.549 5.549-5.549h27.533c1.867 0 3.656.887 4.787 2.372l11.385 14.95c5.534 7.266 14.29 11.604 23.423 11.604h58.562c9.133 0 17.889-4.338 23.423-11.604l11.385-14.95c1.131-1.485 2.92-2.372 4.787-2.372h27.533c3.06 0 5.549 2.489 5.549 5.549v323.81c0 4.142 3.358 7.5 7.5 7.5s7.5-3.358 7.5-7.5v-323.81c0-11.331-9.218-20.549-20.549-20.549h-27.533c-6.52 0-12.77 3.097-16.721 8.284l-11.385 14.95c-2.714 3.564-7.009 5.692-11.489 5.692h-58.562c-4.481-.001-8.776-2.129-11.49-5.693z"/><path d="m274.787 456.816c0 4.142 3.358 7.5 7.5 7.5h77.32c11.331 0 20.549-9.218 20.549-20.549v-37.444c0-4.142-3.358-7.5-7.5-7.5s-7.5 3.358-7.5 7.5v37.444c0 3.06-2.489 5.549-5.549 5.549h-77.32c-4.142 0-7.5 3.358-7.5 7.5z"/><path d="m281.233 45c4.142 0 7.5-3.358 7.5-7.5s-3.358-7.5-7.5-7.5h-46.48c-4.142 0-7.5 3.358-7.5 7.5s3.358 7.5 7.5 7.5z"/><path d="m280.939 225.608c-2.759 3.089-2.492 7.83.598 10.59 1.431 1.278 3.215 1.906 4.994 1.906 2.062 0 4.115-.845 5.596-2.504l33.488-37.491c15.919-17.822 16.315-45.045.923-63.324-16.209-19.249-43.992-22.902-64.626-8.5l-1.443 1.007c-1.481 1.032-3.47 1.033-4.951 0l-1.443-1.007c-20.634-14.403-48.417-10.749-64.626 8.5-15.393 18.279-14.995 45.502.924 63.324l2.86 3.202c2.759 3.089 7.5 3.355 10.59.597 3.089-2.759 3.356-7.5.597-10.59l-2.86-3.202c-10.978-12.291-11.252-31.064-.637-43.669 11.178-13.275 30.338-15.794 44.567-5.861l1.444 1.007c6.616 4.616 15.504 4.616 22.12 0l1.443-1.008c14.23-9.931 33.389-7.413 44.567 5.862 10.615 12.605 10.341 31.379-.637 43.669z"/><path d="m321.213 101.437v-8.481c0-4.142-3.358-7.5-7.5-7.5s-7.5 3.358-7.5 7.5v8.481c0 4.142 3.358 7.5 7.5 7.5s7.5-3.358 7.5-7.5z"/><path d="m342.019 121.053 5.301-5.301c2.929-2.929 2.929-7.678 0-10.606-2.929-2.929-7.678-2.929-10.606 0l-5.301 5.301c-2.929 2.929-2.929 7.678 0 10.606 1.464 1.464 3.384 2.197 5.303 2.197s3.839-.732 5.303-2.197z"/></g></svg>