<svg id="Capa_1" enable-background="new 0 0 513.213 513.213" height="42" viewBox="0 0 513.213 513.213" width="42" xmlns="http://www.w3.org/2000/svg"><g><path d="m435.912 124.585c-1.537-1.209-2.33-3.097-2.121-5.053.276-2.596.417-5.225.417-7.813 0-12.898-3.394-25.618-9.814-36.783-2.065-3.591-6.649-4.825-10.241-2.763-3.591 2.065-4.827 6.65-2.763 10.241 5.115 8.894 7.818 19.026 7.818 29.305 0 2.06-.112 4.153-.333 6.221-.761 7.122 2.142 14.014 7.764 18.436 14.31 11.256 22.517 28.134 22.517 46.307 0 19.669-9.773 37.963-26.144 48.937-7.327 4.91-10.813 13.789-8.674 22.094.919 3.565 1.313 7.263 1.17 10.989-.755 19.694-16.766 35.748-36.452 36.547-10.652.446-21.005-3.664-28.485-11.118 3.058-6.214 5.473-12.723 7.25-19.422h5.49c17.404 0 32.058-13.596 33.361-30.952.693-9.25-2.527-18.456-8.837-25.256s-15.248-10.7-24.524-10.7h-1.945v-15.834c0-6.002-4.299-11.066-10.224-12.044l-18.555-3.053c-11.112-1.828-20.983-7.774-27.794-16.744l-10.629-14c-2.395-3.152-6.827-3.901-10.125-1.711l-3.679 2.444c-14.732 9.788-33.773 9.787-48.506.001-5.353-3.559-12.592-2.334-16.478 2.785l-7.956 10.479c-6.812 8.971-16.683 14.917-27.795 16.745l-18.558 3.053c-5.922.978-10.221 6.042-10.221 12.044v15.833h-1.945c-9.276 0-18.215 3.9-24.524 10.701-6.31 6.8-9.529 16.005-8.835 25.255 1.301 17.356 15.954 30.952 33.359 30.952h5.471c1.863 7.003 4.43 13.72 7.623 20.073-7.525 7.204-17.546 10.976-28.188 10.452-19.486-.963-35.344-17-36.103-36.51-.146-3.735.248-7.44 1.169-11.012 2.139-8.305-1.347-17.183-8.673-22.092-16.371-10.975-26.145-29.269-26.145-48.938 0-18.173 8.207-35.051 22.517-46.306 5.622-4.422 8.524-11.314 7.764-18.436-.221-2.068-.333-4.162-.333-6.222 0-32.473 26.418-58.891 58.89-58.891 6.517 0 12.921 1.06 19.034 3.149 8.816 3.017 18.611-.373 23.82-8.244 13.567-20.495 36.318-32.731 60.859-32.731s47.292 12.236 60.857 32.733c5.21 7.87 15.001 11.263 23.819 8.245 6.114-2.091 12.519-3.15 19.035-3.15 11.156 0 22.028 3.149 31.44 9.106 3.5 2.216 8.134 1.175 10.349-2.325 2.216-3.5 1.174-8.134-2.325-10.349-11.816-7.479-25.463-11.433-39.464-11.433-8.171 0-16.208 1.331-23.89 3.958-2.358.806-5.015-.151-6.457-2.332-16.349-24.704-43.776-39.453-73.364-39.453s-57.015 14.749-73.365 39.454c-1.443 2.181-4.102 3.136-6.458 2.331-7.681-2.626-15.718-3.957-23.889-3.957-40.743 0-73.89 33.147-73.89 73.891 0 2.589.141 5.218.418 7.814.208 1.955-.585 3.843-2.122 5.053-17.949 14.118-28.243 35.293-28.243 58.096 0 24.68 12.259 47.632 32.794 61.397 2.048 1.372 3.052 3.739 2.498 5.888-1.285 4.983-1.834 10.145-1.632 15.339 1.057 27.203 23.174 49.565 50.351 50.909.912.045 1.818.067 2.724.067 12.647-.001 24.555-4.389 34.034-12.39 12.573 17.961 30.604 31.831 51.666 39.187l-1.583 28.817-46.043 29.121c-3.501 2.214-4.544 6.847-2.33 10.348 1.428 2.257 3.859 3.492 6.346 3.492 1.371 0 2.758-.376 4.002-1.162l46.329-29.302c1.351-.855 2.516-1.931 3.493-3.146 8.197 1.621 16.545 2.446 24.897 2.446 8.354 0 16.707-.823 24.909-2.442.977 1.216 2.142 2.291 3.492 3.145l73.458 46.46c13.456 8.511 21.489 23.098 21.489 39.019v35.838c0 4.143 3.357 7.5 7.5 7.5s7.5-3.357 7.5-7.5v-35.838c0-21.094-10.644-40.419-28.472-51.696l-73.174-46.28-1.512-29.193c5.321-1.914 10.49-4.253 15.443-7.011 3.619-2.015 4.919-6.582 2.904-10.201-2.015-3.618-6.58-4.921-10.201-2.904-13.331 7.423-28.488 11.346-43.833 11.346-39.793 0-73.651-25.887-85.627-61.705 7.008 4.694 15.423 7.442 24.471 7.442h7.084c25.396 0 46.058-20.661 46.058-46.058v-9.785c0-3.37-.496-6.624-1.406-9.703 6.261-1.375 12.558-1.369 18.835.013-.907 3.075-1.402 6.325-1.402 9.689v9.785c0 25.396 20.661 46.058 46.058 46.058h7.084c9.061 0 17.479-2.762 24.489-7.469-3.901 11.719-10.204 22.601-18.64 31.942-2.776 3.074-2.534 7.816.54 10.593 3.074 2.775 7.816 2.534 10.593-.54 3.111-3.445 5.961-7.078 8.565-10.856 9.582 8.263 21.905 12.938 34.713 12.938.712 0 1.428-.015 2.142-.043 27.452-1.114 49.78-23.499 50.832-50.961.199-5.181-.351-10.331-1.633-15.307-.554-2.15.45-4.518 2.499-5.891 20.534-13.765 32.793-36.717 32.793-61.396.001-22.803-10.293-43.978-28.242-58.097zm-158.925 222.247 1.027 19.821c-14.101 2.707-28.696 2.705-42.795 0l1.076-19.597c6.419 1.228 13.04 1.878 19.811 1.878 7.033 0 14.03-.718 20.881-2.102zm86.324-128.032c5.192 0 9.997 2.097 13.528 5.902 3.531 3.807 5.262 8.754 4.873 13.933-.718 9.573-8.801 17.073-18.401 17.073h-2.659c.456-3.976.714-7.99.714-12.034v-24.874zm-214.409 36.908c-9.601 0-17.685-7.5-18.402-17.073-.389-5.178 1.343-10.126 4.874-13.933 3.532-3.806 8.336-5.902 13.528-5.902h1.945v24.874c0 4.069.24 8.083.692 12.034zm84.191-22.095c0 17.125-13.933 31.058-31.058 31.058h-7.084c-16.048 0-29.104-13.057-29.104-29.104 0-17.125 13.933-31.058 31.058-31.058h16.868c10.652 0 19.319 8.667 19.319 19.319v9.785zm40.068-32.968c-11.263-3.348-22.89-3.362-34.127-.02-6.277-6.828-15.276-11.116-25.26-11.116h-16.868c-11.961 0-22.861 4.596-31.058 12.098v-11.269l16.214-2.668c14.914-2.453 28.163-10.435 37.306-22.475l6.405-8.437c18.693 11.262 41.975 11.264 60.668-.001l6.406 8.438c9.142 12.039 22.391 20.021 37.305 22.474l16.214 2.668v11.267c-8.196-7.502-19.096-12.096-31.058-12.096h-16.868c-9.994.001-19.002 4.297-25.279 11.137zm44.101 64.026h-7.084c-17.125 0-31.058-13.933-31.058-31.058v-9.785c0-10.652 8.667-19.319 19.319-19.319h16.868c17.125 0 31.058 13.933 31.058 31.058 0 16.047-13.055 29.104-29.103 29.104z"/><path d="m146.533 418.313c-17.703 11.294-28.271 30.57-28.271 51.562v35.838c0 4.143 3.357 7.5 7.5 7.5s7.5-3.357 7.5-7.5v-35.838c0-15.843 7.978-30.391 21.34-38.917 3.492-2.228 4.517-6.864 2.288-10.356-2.228-3.495-6.867-4.519-10.357-2.289z"/><path d="m174.164 458.18c-10.658 14.747-12.253 34.503-3.349 51.081 1.354 2.52 3.94 3.952 6.614 3.952 1.312 0 2.647-.345 3.865-1.077 3.443-2.07 4.503-6.626 2.626-10.179-6.371-12.058-4.726-26.507 3.779-36.764 1.852-2.233 1.754-5.497-.183-7.658-3.645-4.069-10.151-3.784-13.352.645z"/><path d="m332.064 450.429c-3.084-2.765-7.827-2.505-10.59.58-2.765 3.084-2.505 7.826.58 10.59 11.493 10.301 14.425 26.98 7.128 40.564-1.96 3.648-.591 8.196 3.059 10.156 1.129.606 2.344.894 3.542.894 2.673 0 5.261-1.433 6.614-3.952 10.583-19.703 6.335-43.897-10.333-58.832z"/></g></svg>